<?xml version="1.0" encoding="UTF-8" standalone="no"?>
<!DOCTYPE svg PUBLIC "-//W3C//DTD SVG 1.1//EN" "http://www.w3.org/Graphics/SVG/1.1/DTD/svg11.dtd">
<svg xmlns="http://www.w3.org/2000/svg" version="1.1" viewBox="0.00 0.00 512.00 512.00">
<path fill="#231f20" d="
  M 20.88 0.00
  L 25.02 0.00
  Q 33.52 1.12 40.20 7.80
  Q 88.94 56.57 137.36 105.05
  A 1.02 1.02 0.0 0 0 138.80 105.05
  Q 157.09 86.61 175.12 68.37
  C 190.10 53.21 212.79 75.78 197.28 90.77
  Q 189.91 97.90 182.89 105.25
  A 0.43 0.43 0.0 0 0 182.89 105.85
  L 218.65 141.61
  A 0.32 0.32 0.0 0 1 218.49 142.15
  C 180.64 150.11 148.01 170.70 129.18 205.17
  Q 128.89 205.70 128.46 205.28
  L 105.85 182.65
  A 0.35 0.34 45.0 0 0 105.36 182.64
  Q 99.93 188.05 94.47 193.54
  Q 88.13 199.91 84.63 201.27
  C 72.77 205.89 59.68 193.14 64.81 180.73
  Q 65.95 177.95 69.99 173.88
  Q 87.75 155.96 105.53 138.15
  Q 105.79 137.89 105.53 137.62
  Q 57.45 89.52 9.48 41.46
  Q 4.21 36.18 2.34 32.40
  C -4.67 18.21 5.12 2.04 20.88 0.00
  Z"
/>
<path fill="#231f20" d="
  M 487.12 0.00
  L 491.09 0.00
  C 511.24 2.65 518.71 25.34 504.28 39.79
  Q 455.49 88.65 406.81 137.63
  Q 406.42 138.01 406.81 138.40
  Q 422.47 154.01 438.13 169.48
  Q 445.33 176.59 446.53 178.73
  C 454.15 192.25 438.90 207.85 425.05 199.99
  Q 423.24 198.97 415.73 191.62
  Q 411.26 187.25 406.78 182.90
  A 0.42 0.41 -45.5 0 0 406.20 182.91
  L 383.80 205.30
  Q 383.40 205.71 383.12 205.21
  C 364.17 171.05 331.26 150.08 293.54 142.20
  A 0.34 0.34 0.0 0 1 293.37 141.63
  L 328.98 106.01
  A 0.50 0.49 46.2 0 0 328.99 105.31
  Q 323.49 99.50 317.65 93.90
  Q 312.61 89.07 311.17 85.99
  C 305.46 73.82 317.96 58.94 331.40 64.65
  Q 334.20 65.84 338.27 69.90
  Q 356.01 87.58 373.70 105.30
  A 0.45 0.45 0.0 0 0 374.34 105.30
  Q 424.36 55.35 474.55 5.30
  Q 478.82 1.05 487.12 0.00
  Z"
/>
<path fill="#231f20" d="
  M 193.09 366.96
  C 147.62 365.96 145.47 296.51 145.73 265.99
  Q 145.87 250.15 146.25 246.02
  C 150.03 205.49 182.78 179.63 220.26 170.58
  Q 258.42 161.37 296.23 171.83
  C 335.13 182.58 365.64 211.00 366.25 253.50
  C 366.44 266.58 366.81 281.27 364.91 293.10
  C 360.13 322.90 343.52 349.19 318.93 366.61
  A 1.69 1.67 -15.2 0 0 318.22 367.83
  C 315.10 399.50 285.68 404.58 259.56 405.30
  C 244.53 405.72 228.04 404.54 214.53 398.13
  C 201.43 391.92 195.76 381.62 193.78 367.58
  Q 193.69 366.98 193.09 366.96
  Z
  M 227.01 342.22
  Q 240.53 335.76 242.74 320.77
  Q 243.69 314.32 239.00 310.00
  C 228.43 300.26 207.95 297.57 194.00 298.41
  C 188.18 298.76 180.50 299.98 176.71 304.21
  C 171.95 309.54 176.89 322.44 180.67 328.08
  C 186.60 336.94 195.39 342.67 205.94 344.04
  C 213.36 345.01 220.07 345.54 227.01 342.22
  Z
  M 330.59 300.85
  C 317.01 295.61 297.77 298.49 284.25 303.45
  C 279.56 305.17 272.92 308.56 270.60 313.72
  Q 269.27 316.66 269.81 321.13
  C 271.59 336.04 283.68 345.26 298.43 344.73
  C 307.39 344.40 315.14 342.92 322.49 337.51
  Q 334.80 328.44 337.41 313.28
  Q 338.99 304.10 330.59 300.85
  Z
  M 255.78 359.68
  A 0.36 0.36 0.0 0 1 256.43 359.69
  C 257.73 362.58 261.42 367.81 265.19 366.19
  C 269.09 364.51 267.66 356.57 266.87 353.51
  C 265.45 348.05 263.92 340.96 259.59 337.11
  C 249.45 328.08 241.30 360.94 245.29 364.98
  C 249.52 369.26 254.10 363.07 255.78 359.68
  Z"
/>
<path fill="#231f20" d="
  M 512.00 510.81
  L 512.00 512.00
  L 510.64 512.00
  L 427.79 504.39
  A 1.60 1.55 -18.7 0 1 426.84 503.94
  L 331.24 408.23
  A 0.67 0.66 43.4 0 1 331.21 407.33
  Q 340.26 396.81 343.76 383.36
  Q 343.90 382.82 344.32 382.47
  Q 377.31 354.74 389.34 313.22
  Q 389.51 312.63 389.95 313.07
  L 503.82 426.99
  Q 504.21 427.38 504.26 427.93
  L 512.00 510.81
  Z"
/>
<path fill="#231f20" d="
  M 1.21 512.00
  L 0.00 512.00
  L 0.00 510.45
  L 7.73 427.89
  Q 7.78 427.34 8.17 426.95
  L 120.31 314.80
  A 0.32 0.32 0.0 0 1 120.85 314.98
  C 125.57 345.92 139.30 378.56 170.58 390.93
  A 1.36 1.35 89.4 0 1 171.33 391.67
  Q 174.89 400.17 180.84 407.22
  Q 181.22 407.67 180.80 408.09
  L 85.14 503.87
  A 1.39 1.38 20.1 0 1 84.27 504.27
  L 1.21 512.00
  Z"
/>
</svg>
