<?xml version="1.0" encoding="UTF-8" standalone="no"?>
<!DOCTYPE svg PUBLIC "-//W3C//DTD SVG 1.1//EN" "http://www.w3.org/Graphics/SVG/1.1/DTD/svg11.dtd">
<svg xmlns="http://www.w3.org/2000/svg" version="1.1" viewBox="0.00 0.00 64.00 64.00">
<g stroke-width="2.00" fill="none" stroke-linecap="butt">
<path stroke="#9c94bc" vector-effect="non-scaling-stroke" d="
  M 25.12 60.47
  Q 25.29 61.10 25.85 61.43
  A 0.88 0.88 0.0 0 0 26.87 61.34
  Q 27.52 60.80 27.68 59.97
  A 0.41 0.41 0.0 0 1 28.35 59.73
  C 28.90 60.21 29.09 61.06 29.66 61.38
  Q 30.35 61.76 30.90 60.92
  Q 31.40 60.16 31.72 59.87
  Q 32.30 59.33 32.49 60.09
  Q 32.78 61.23 33.76 61.44
  Q 34.35 61.58 34.69 61.08
  L 35.57 59.79
  A 0.41 0.41 0.0 0 1 36.31 59.95
  Q 36.58 61.36 37.92 61.52
  A 0.68 0.68 0.0 0 0 38.67 61.01
  Q 38.83 60.37 39.21 59.88
  A 0.49 0.49 0.0 0 1 40.04 59.97
  L 40.52 60.97
  A 0.86 0.86 0.0 0 0 41.11 61.44
  Q 42.48 61.75 42.62 60.50
  C 43.69 51.18 53.60 56.75 53.56 49.77
  Q 53.55 48.92 52.29 46.45
  C 50.93 43.77 52.14 41.38 53.68 38.68
  C 61.24 25.40 53.76 8.28 39.60 3.66
  C 19.94 -2.75 2.29 16.29 8.79 35.51
  C 9.94 38.92 13.56 42.38 11.60 46.50
  Q 10.43 48.96 10.43 49.72
  C 10.38 56.80 20.51 51.21 21.43 60.59
  A 1.06 1.06 0.0 0 0 23.06 61.38
  Q 23.71 60.95 23.78 60.19
  Q 23.81 59.90 24.07 59.79
  Q 24.31 59.69 24.58 59.82
  Q 25.00 60.02 25.12 60.47"
/>
<path stroke="#9c94bc" vector-effect="non-scaling-stroke" d="
  M 33.15 6.31
  C 42.50 7.23 49.45 13.08 52.36 22.14
  A 0.29 0.29 0.0 0 0 52.75 22.31
  L 53.46 22.00
  Q 53.66 21.91 53.59 21.70
  Q 48.92 7.17 33.76 4.94
  A 0.78 0.78 0.0 0 0 32.90 5.49
  L 32.81 5.80
  Q 32.68 6.26 33.15 6.31"
/>
<path stroke="#9c94bc" vector-effect="non-scaling-stroke" d="
  M 28.71 36.25
  C 30.17 34.34 31.74 27.61 27.39 26.65
  C 24.21 25.95 19.74 25.09 16.86 26.24
  C 10.40 28.81 12.65 49.28 23.78 40.79
  Q 27.25 38.15 28.71 36.25"
/>
<path stroke="#9c94bc" vector-effect="non-scaling-stroke" d="
  M 48.62 27.24
  C 46.24 24.85 39.94 25.77 36.54 26.54
  C 31.32 27.74 34.37 35.52 36.96 38.04
  C 40.97 41.95 46.97 46.07 49.67 39.23
  C 51.01 35.83 51.43 30.05 48.62 27.24"
/>
<path stroke="#9c94bc" vector-effect="non-scaling-stroke" d="
  M 34.62 51.27
  C 37.59 48.95 34.29 44.67 32.38 42.80
  A 0.55 0.55 0.0 0 0 31.60 42.80
  C 29.76 44.61 26.21 49.15 29.47 51.30
  Q 29.90 51.58 30.40 51.46
  Q 32.04 51.07 33.67 51.48
  Q 34.20 51.61 34.62 51.27"
/>
<path stroke="#9c7b7c" vector-effect="non-scaling-stroke" d="
  M 21.30 40.82
  C 25.43 38.29 28.96 35.47 28.86 29.96
  Q 28.83 28.52 27.48 28.09
  C 24.90 27.28 16.83 25.69 15.39 29.88
  C 14.21 33.30 14.77 44.82 21.30 40.82"
/>
<path stroke="#9c7b7c" vector-effect="non-scaling-stroke" d="
  M 41.89 40.34
  C 49.55 45.65 51.07 30.96 47.37 28.05
  C 45.24 26.38 39.27 27.43 36.75 28.04
  Q 35.38 28.37 35.27 29.78
  C 34.87 34.80 37.45 37.27 41.89 40.34"
/>
<path stroke="#9a507a" vector-effect="non-scaling-stroke" d="
  M 34.59 48.75
  C 34.21 47.24 33.22 45.76 32.24 44.65
  A 0.39 0.39 0.0 0 0 31.66 44.65
  Q 30.03 46.57 29.48 49.01
  A 0.80 0.80 0.0 0 0 30.63 49.90
  Q 31.94 49.23 33.20 49.86
  A 0.98 0.98 0.0 0 0 34.59 48.75"
/>
</g>
<path fill="#392979" fill-opacity="0.996" d="
  M 23.96 62.38
  Q 21.87 63.40 20.66 61.97
  C 18.97 59.95 20.59 57.50 17.05 55.92
  C 15.77 55.35 13.64 55.67 12.66 55.16
  Q 6.52 51.98 10.49 45.73
  C 11.17 44.65 10.81 42.43 10.05 41.16
  Q 4.43 31.73 6.54 21.95
  C 10.14 5.30 28.18 -3.94 43.82 3.97
  C 58.11 11.20 61.74 28.37 53.59 41.76
  C 51.71 44.84 55.21 46.95 55.03 49.25
  C 54.34 58.49 45.13 52.91 44.14 59.37
  C 43.75 61.91 42.89 63.74 39.99 62.32
  Q 39.48 62.07 38.98 62.36
  L 38.19 62.82
  A 0.71 0.70 45.4 0 1 37.47 62.81
  Q 35.96 61.91 34.44 62.69
  Q 33.89 62.97 33.35 62.68
  Q 31.94 61.92 30.56 62.73
  Q 30.06 63.03 29.56 62.73
  Q 28.15 61.87 26.64 62.79
  Q 26.12 63.11 25.64 62.72
  Q 25.30 62.45 24.91 62.32
  Q 24.42 62.15 23.96 62.38
  Z
  M 25.12 60.47
  Q 25.29 61.10 25.85 61.43
  A 0.88 0.88 0.0 0 0 26.87 61.34
  Q 27.52 60.80 27.68 59.97
  A 0.41 0.41 0.0 0 1 28.35 59.73
  C 28.90 60.21 29.09 61.06 29.66 61.38
  Q 30.35 61.76 30.90 60.92
  Q 31.40 60.16 31.72 59.87
  Q 32.30 59.33 32.49 60.09
  Q 32.78 61.23 33.76 61.44
  Q 34.35 61.58 34.69 61.08
  L 35.57 59.79
  A 0.41 0.41 0.0 0 1 36.31 59.95
  Q 36.58 61.36 37.92 61.52
  A 0.68 0.68 0.0 0 0 38.67 61.01
  Q 38.83 60.37 39.21 59.88
  A 0.49 0.49 0.0 0 1 40.04 59.97
  L 40.52 60.97
  A 0.86 0.86 0.0 0 0 41.11 61.44
  Q 42.48 61.75 42.62 60.50
  C 43.69 51.18 53.60 56.75 53.56 49.77
  Q 53.55 48.92 52.29 46.45
  C 50.93 43.77 52.14 41.38 53.68 38.68
  C 61.24 25.40 53.76 8.28 39.60 3.66
  C 19.94 -2.75 2.29 16.29 8.79 35.51
  C 9.94 38.92 13.56 42.38 11.60 46.50
  Q 10.43 48.96 10.43 49.72
  C 10.38 56.80 20.51 51.21 21.43 60.59
  A 1.06 1.06 0.0 0 0 23.06 61.38
  Q 23.71 60.95 23.78 60.19
  Q 23.81 59.90 24.07 59.79
  Q 24.31 59.69 24.58 59.82
  Q 25.00 60.02 25.12 60.47
  Z"
/>
<path fill="#ffffff" d="
  M 24.58 59.82
  Q 24.31 59.69 24.07 59.79
  Q 23.81 59.90 23.78 60.19
  Q 23.71 60.95 23.06 61.38
  A 1.06 1.06 0.0 0 1 21.43 60.59
  C 20.51 51.21 10.38 56.80 10.43 49.72
  Q 10.43 48.96 11.60 46.50
  C 13.56 42.38 9.94 38.92 8.79 35.51
  C 2.29 16.29 19.94 -2.75 39.60 3.66
  C 53.76 8.28 61.24 25.40 53.68 38.68
  C 52.14 41.38 50.93 43.77 52.29 46.45
  Q 53.55 48.92 53.56 49.77
  C 53.60 56.75 43.69 51.18 42.62 60.50
  Q 42.48 61.75 41.11 61.44
  A 0.86 0.86 0.0 0 1 40.52 60.97
  L 40.04 59.97
  A 0.49 0.49 0.0 0 0 39.21 59.88
  Q 38.83 60.37 38.67 61.01
  A 0.68 0.68 0.0 0 1 37.92 61.52
  Q 36.58 61.36 36.31 59.95
  A 0.41 0.41 0.0 0 0 35.57 59.79
  L 34.69 61.08
  Q 34.35 61.58 33.76 61.44
  Q 32.78 61.23 32.49 60.09
  Q 32.30 59.33 31.72 59.87
  Q 31.40 60.16 30.90 60.92
  Q 30.35 61.76 29.66 61.38
  C 29.09 61.06 28.90 60.21 28.35 59.73
  A 0.41 0.41 0.0 0 0 27.68 59.97
  Q 27.52 60.80 26.87 61.34
  A 0.88 0.88 0.0 0 1 25.85 61.43
  Q 25.29 61.10 25.12 60.47
  Q 25.00 60.02 24.58 59.82
  Z
  M 33.15 6.31
  C 42.50 7.23 49.45 13.08 52.36 22.14
  A 0.29 0.29 0.0 0 0 52.75 22.31
  L 53.46 22.00
  Q 53.66 21.91 53.59 21.70
  Q 48.92 7.17 33.76 4.94
  A 0.78 0.78 0.0 0 0 32.90 5.49
  L 32.81 5.80
  Q 32.68 6.26 33.15 6.31
  Z
  M 28.71 36.25
  C 30.17 34.34 31.74 27.61 27.39 26.65
  C 24.21 25.95 19.74 25.09 16.86 26.24
  C 10.40 28.81 12.65 49.28 23.78 40.79
  Q 27.25 38.15 28.71 36.25
  Z
  M 48.62 27.24
  C 46.24 24.85 39.94 25.77 36.54 26.54
  C 31.32 27.74 34.37 35.52 36.96 38.04
  C 40.97 41.95 46.97 46.07 49.67 39.23
  C 51.01 35.83 51.43 30.05 48.62 27.24
  Z
  M 34.62 51.27
  C 37.59 48.95 34.29 44.67 32.38 42.80
  A 0.55 0.55 0.0 0 0 31.60 42.80
  C 29.76 44.61 26.21 49.15 29.47 51.30
  Q 29.90 51.58 30.40 51.46
  Q 32.04 51.07 33.67 51.48
  Q 34.20 51.61 34.62 51.27
  Z"
/>
<path fill="#392979" fill-opacity="0.996" d="
  M 52.36 22.14
  C 49.45 13.08 42.50 7.23 33.15 6.31
  Q 32.68 6.26 32.81 5.80
  L 32.90 5.49
  A 0.78 0.78 0.0 0 1 33.76 4.94
  Q 48.92 7.17 53.59 21.70
  Q 53.66 21.91 53.46 22.00
  L 52.75 22.31
  A 0.29 0.29 0.0 0 1 52.36 22.14
  Z"
/>
<path fill="#392979" fill-opacity="0.996" d="
  M 27.39 26.65
  C 31.74 27.61 30.17 34.34 28.71 36.25
  Q 27.25 38.15 23.78 40.79
  C 12.65 49.28 10.40 28.81 16.86 26.24
  C 19.74 25.09 24.21 25.95 27.39 26.65
  Z
  M 21.30 40.82
  C 25.43 38.29 28.96 35.47 28.86 29.96
  Q 28.83 28.52 27.48 28.09
  C 24.90 27.28 16.83 25.69 15.39 29.88
  C 14.21 33.30 14.77 44.82 21.30 40.82
  Z"
/>
<path fill="#392979" fill-opacity="0.996" d="
  M 48.62 27.24
  C 51.43 30.05 51.01 35.83 49.67 39.23
  C 46.97 46.07 40.97 41.95 36.96 38.04
  C 34.37 35.52 31.32 27.74 36.54 26.54
  C 39.94 25.77 46.24 24.85 48.62 27.24
  Z
  M 41.89 40.34
  C 49.55 45.65 51.07 30.96 47.37 28.05
  C 45.24 26.38 39.27 27.43 36.75 28.04
  Q 35.38 28.37 35.27 29.78
  C 34.87 34.80 37.45 37.27 41.89 40.34
  Z"
/>
<path fill="#ffcd7e" d="
  M 21.30 40.82
  C 14.77 44.82 14.21 33.30 15.39 29.88
  C 16.83 25.69 24.90 27.28 27.48 28.09
  Q 28.83 28.52 28.86 29.96
  C 28.96 35.47 25.43 38.29 21.30 40.82
  Z"
/>
<path fill="#ffcd7e" d="
  M 47.37 28.05
  C 51.07 30.96 49.55 45.65 41.89 40.34
  C 37.45 37.27 34.87 34.80 35.27 29.78
  Q 35.38 28.37 36.75 28.04
  C 39.27 27.43 45.24 26.38 47.37 28.05
  Z"
/>
<path fill="#392979" fill-opacity="0.996" d="
  M 32.38 42.80
  C 34.29 44.67 37.59 48.95 34.62 51.27
  Q 34.20 51.61 33.67 51.48
  Q 32.04 51.07 30.40 51.46
  Q 29.90 51.58 29.47 51.30
  C 26.21 49.15 29.76 44.61 31.60 42.80
  A 0.55 0.55 0.0 0 1 32.38 42.80
  Z
  M 34.59 48.75
  C 34.21 47.24 33.22 45.76 32.24 44.65
  A 0.39 0.39 0.0 0 0 31.66 44.65
  Q 30.03 46.57 29.48 49.01
  A 0.80 0.80 0.0 0 0 30.63 49.90
  Q 31.94 49.23 33.20 49.86
  A 0.98 0.98 0.0 0 0 34.59 48.75
  Z"
/>
<path fill="#fb767b" d="
  M 32.24 44.65
  C 33.22 45.76 34.21 47.24 34.59 48.75
  A 0.98 0.98 0.0 0 1 33.20 49.86
  Q 31.94 49.23 30.63 49.90
  A 0.80 0.80 0.0 0 1 29.48 49.01
  Q 30.03 46.57 31.66 44.65
  A 0.39 0.39 0.0 0 1 32.24 44.65
  Z"
/>
</svg>
