<?xml version="1.0" encoding="UTF-8" standalone="no"?>
<!DOCTYPE svg PUBLIC "-//W3C//DTD SVG 1.1//EN" "http://www.w3.org/Graphics/SVG/1.1/DTD/svg11.dtd">
<svg xmlns="http://www.w3.org/2000/svg" version="1.1" viewBox="0.00 0.00 64.00 64.00">
<g stroke-width="2.00" fill="none" stroke-linecap="butt">
<path stroke="#cda36a" vector-effect="non-scaling-stroke" d="
  M 62.69 41.10
  L 59.92 46.21
  Q 59.73 46.56 59.44 46.82
  Q 58.92 47.29 58.87 47.98
  Q 58.84 48.41 58.49 48.67
  C 56.70 50.02 55.49 52.14 54.30 53.40
  C 42.79 65.60 23.00 65.37 10.64 54.73
  Q 10.19 54.35 8.45 52.22
  Q 7.26 50.77 5.68 50.19"
/>
<path stroke="#787a87" vector-effect="non-scaling-stroke" d="
  M 3.70 25.23
  Q 1.27 39.90 9.40 49.89
  C 25.53 69.69 56.36 61.16 60.58 36.43
  C 61.51 31.01 60.47 26.77 59.00 21.73
  Q 58.51 20.04 57.91 18.93
  Q 53.14 10.04 44.06 5.81"
/>
<path stroke="#747171" vector-effect="non-scaling-stroke" d="
  M 44.06 5.81
  Q 42.86 5.02 40.86 4.44
  C 24.26 -0.40 8.34 8.86 3.70 25.23"
/>
<path stroke="#0f2e76" vector-effect="non-scaling-stroke" d="
  M 44.06 5.81
  Q 40.32 5.69 37.00 5.48
  C 29.32 5.00 21.97 6.83 16.10 11.84
  C 15.45 12.40 15.11 13.30 14.51 13.77
  Q 10.33 17.05 9.17 19.76
  Q 8.18 22.07 6.92 23.06
  Q 6.53 23.37 6.30 23.81
  Q 5.34 25.65 4.34 27.48
  Q 4.36 27.81 4.11 27.87
  Q 3.63 27.99 3.82 27.53
  Q 4.44 25.97 3.70 25.23"
/>
<path stroke="#67606f" vector-effect="non-scaling-stroke" d="
  M 19.14 34.53
  L 19.13 47.69
  A 3.99 3.99 0.0 0 0 23.09 51.68
  Q 31.48 51.75 40.59 51.66
  Q 43.62 51.63 45.05 50.32
  Q 47.56 48.03 45.00 44.62"
/>
<path stroke="#7a7f8d" vector-effect="non-scaling-stroke" d="
  M 45.00 44.62
  Q 43.76 43.33 42.74 43.33
  Q 35.51 43.33 28.32 43.31
  A 0.69 0.69 0.0 0 1 27.63 42.62
  L 27.63 16.25
  A 3.47 3.46 0.8 0 0 24.25 12.79
  L 23.41 12.76
  A 4.18 4.18 0.0 0 0 19.12 16.94
  L 19.14 34.53"
/>
<path stroke="#cfa870" vector-effect="non-scaling-stroke" d="
  M 45.00 44.62
  C 45.62 48.61 44.25 50.19 40.22 50.23
  Q 31.48 50.30 23.16 50.28
  A 2.46 2.46 0.0 0 1 20.73 48.11
  L 19.14 34.53"
/>
</g>
<path fill="#ddbc82" d="
  M 28.60 0.00
  L 35.50 0.00
  Q 59.66 4.47 64.00 28.61
  L 64.00 35.72
  L 62.69 41.10
  L 59.92 46.21
  Q 59.73 46.56 59.44 46.82
  Q 58.92 47.29 58.87 47.98
  Q 58.84 48.41 58.49 48.67
  C 56.70 50.02 55.49 52.14 54.30 53.40
  C 42.79 65.60 23.00 65.37 10.64 54.73
  Q 10.19 54.35 8.45 52.22
  Q 7.26 50.77 5.68 50.19
  Q 1.22 43.62 0.00 35.33
  L 0.00 28.52
  Q 4.49 4.33 28.60 0.00
  Z
  M 3.70 25.23
  Q 1.27 39.90 9.40 49.89
  C 25.53 69.69 56.36 61.16 60.58 36.43
  C 61.51 31.01 60.47 26.77 59.00 21.73
  Q 58.51 20.04 57.91 18.93
  Q 53.14 10.04 44.06 5.81
  Q 42.86 5.02 40.86 4.44
  C 24.26 -0.40 8.34 8.86 3.70 25.23
  Z"
/>
<path fill="#0b2560" d="
  M 44.06 5.81
  Q 40.32 5.69 37.00 5.48
  C 29.32 5.00 21.97 6.83 16.10 11.84
  C 15.45 12.40 15.11 13.30 14.51 13.77
  Q 10.33 17.05 9.17 19.76
  Q 8.18 22.07 6.92 23.06
  Q 6.53 23.37 6.30 23.81
  Q 5.34 25.65 4.34 27.48
  Q 4.36 27.81 4.11 27.87
  Q 3.63 27.99 3.82 27.53
  Q 4.44 25.97 3.70 25.23
  C 8.34 8.86 24.26 -0.40 40.86 4.44
  Q 42.86 5.02 44.06 5.81
  Z"
/>
<path fill="#12378c" d="
  M 44.06 5.81
  Q 53.14 10.04 57.91 18.93
  Q 58.51 20.04 59.00 21.73
  C 60.47 26.77 61.51 31.01 60.58 36.43
  C 56.36 61.16 25.53 69.69 9.40 49.89
  Q 1.27 39.90 3.70 25.23
  Q 4.44 25.97 3.82 27.53
  Q 3.63 27.99 4.11 27.87
  Q 4.36 27.81 4.34 27.48
  Q 5.34 25.65 6.30 23.81
  Q 6.53 23.37 6.92 23.06
  Q 8.18 22.07 9.17 19.76
  Q 10.33 17.05 14.51 13.77
  C 15.11 13.30 15.45 12.40 16.10 11.84
  C 21.97 6.83 29.32 5.00 37.00 5.48
  Q 40.32 5.69 44.06 5.81
  Z
  M 19.14 34.53
  L 19.13 47.69
  A 3.99 3.99 0.0 0 0 23.09 51.68
  Q 31.48 51.75 40.59 51.66
  Q 43.62 51.63 45.05 50.32
  Q 47.56 48.03 45.00 44.62
  Q 43.76 43.33 42.74 43.33
  Q 35.51 43.33 28.32 43.31
  A 0.69 0.69 0.0 0 1 27.63 42.62
  L 27.63 16.25
  A 3.47 3.46 0.8 0 0 24.25 12.79
  L 23.41 12.76
  A 4.18 4.18 0.0 0 0 19.12 16.94
  L 19.14 34.53
  Z"
/>
<path fill="#e1c68d" d="
  M 45.00 44.62
  C 45.62 48.61 44.25 50.19 40.22 50.23
  Q 31.48 50.30 23.16 50.28
  A 2.46 2.46 0.0 0 1 20.73 48.11
  L 19.14 34.53
  L 19.12 16.94
  A 4.18 4.18 0.0 0 1 23.41 12.76
  L 24.25 12.79
  A 3.47 3.46 0.8 0 1 27.63 16.25
  L 27.63 42.62
  A 0.69 0.69 0.0 0 0 28.32 43.31
  Q 35.51 43.33 42.74 43.33
  Q 43.76 43.33 45.00 44.62
  Z"
/>
<path fill="#bc8a52" fill-opacity="0.996" d="
  M 19.14 34.53
  L 20.73 48.11
  A 2.46 2.46 0.0 0 0 23.16 50.28
  Q 31.48 50.30 40.22 50.23
  C 44.25 50.19 45.62 48.61 45.00 44.62
  Q 47.56 48.03 45.05 50.32
  Q 43.62 51.63 40.59 51.66
  Q 31.48 51.75 23.09 51.68
  A 3.99 3.99 0.0 0 1 19.13 47.69
  L 19.14 34.53
  Z"
/>
<path fill="#bc8a52" fill-opacity="0.996" d="
  M 62.69 41.10
  Q 56.13 60.58 35.32 64.00
  L 28.56 64.00
  Q 14.04 61.86 5.68 50.19
  Q 7.26 50.77 8.45 52.22
  Q 10.19 54.35 10.64 54.73
  C 23.00 65.37 42.79 65.60 54.30 53.40
  C 55.49 52.14 56.70 50.02 58.49 48.67
  Q 58.84 48.41 58.87 47.98
  Q 58.92 47.29 59.44 46.82
  Q 59.73 46.56 59.92 46.21
  L 62.69 41.10
  Z"
/>
</svg>
